<?xml version="1.0" standalone="no"?>
<!DOCTYPE svg PUBLIC "-//W3C//DTD SVG 20010904//EN"
 "http://www.w3.org/TR/2001/REC-SVG-20010904/DTD/svg10.dtd">
<svg version="1.0" xmlns="http://www.w3.org/2000/svg"
 width="912.000000pt" height="912.000000pt" viewBox="0 0 912.000000 912.000000"
 preserveAspectRatio="xMidYMid meet">
<metadata>
Created by potrace 1.11, written by Peter Selinger 2001-2013
</metadata>
<g transform="translate(0.000000,912.000000) scale(0.100000,-0.100000)"
fill="#000000" stroke="none">
<path d="M4489 9105 c-20 -7 -55 -26 -78 -41 -51 -34 -83 -34 -152 -4 -42 19
-72 24 -134 24 -95 1 -160 -25 -202 -81 -22 -28 -32 -34 -52 -29 -14 3 -66 15
-116 26 -217 50 -490 -20 -643 -165 -37 -35 -64 -66 -61 -69 14 -14 108 17
181 59 43 25 112 57 155 72 68 24 94 27 198 28 114 0 185 -13 185 -36 0 -16
-42 -20 -206 -17 -154 3 -173 1 -214 -18 -53 -25 -103 -69 -97 -87 6 -18 52
-20 152 -7 60 8 104 20 132 36 23 13 51 24 63 24 35 0 8 -32 -77 -90 -173
-118 -350 -282 -470 -435 -22 -27 -47 -56 -56 -64 -29 -23 -20 -48 27 -75 80
-47 80 -47 224 127 34 42 102 111 150 154 48 43 93 84 100 91 16 14 26 16 18
3 -9 -14 46 -56 111 -86 72 -34 176 -101 228 -146 44 -39 95 -106 95 -126 0
-26 -48 -14 -72 18 -55 75 -103 114 -171 138 -37 13 -74 21 -82 17 -33 -12
-12 -92 38 -144 51 -53 96 -71 209 -82 125 -13 186 -39 252 -110 57 -61 95
-141 103 -214 5 -53 5 -55 -20 -61 -32 -8 -60 20 -107 107 -33 61 -83 111
-133 131 -18 7 -94 28 -170 46 -100 24 -142 30 -150 22 -20 -20 19 -115 72
-174 80 -87 180 -128 309 -126 77 1 121 -31 164 -118 31 -64 33 -74 33 -175 0
-93 -3 -110 -21 -135 -12 -15 -28 -29 -36 -31 -28 -6 -144 93 -361 307 -276
273 -290 299 -252 456 8 33 14 87 15 120 0 62 -27 234 -39 248 -14 15 -74 -39
-105 -93 -26 -47 -31 -65 -31 -125 0 -60 5 -78 33 -130 18 -33 36 -80 39 -104
l6 -44 -33 7 c-43 8 -465 210 -508 242 -95 73 -81 184 47 359 28 39 50 77 49
85 -8 39 -85 14 -139 -45 -55 -60 -128 -80 -196 -54 l-28 11 52 48 c100 92
217 106 414 50 128 -36 155 -35 218 11 71 51 59 60 -129 92 -254 42 -401 36
-494 -23 -48 -31 -102 -97 -113 -138 -5 -22 -9 -24 -48 -19 -55 8 -157 -9
-204 -32 -42 -22 -121 -103 -144 -148 -18 -34 -37 -43 -162 -72 -232 -54 -344
-156 -491 -445 -85 -167 -94 -180 -108 -161 -18 25 -119 -17 -173 -73 -77 -79
-141 -241 -158 -405 -6 -58 -5 -71 11 -88 11 -13 14 -23 8 -27 -6 -4 -54 -37
-106 -74 -103 -73 -128 -81 -128 -46 0 23 145 247 166 255 16 6 36 56 32 81
-3 18 -6 19 -37 8 -75 -25 -184 -143 -247 -267 -60 -121 -102 -331 -71 -357
21 -18 53 0 159 86 90 75 167 126 175 118 3 -2 -6 -29 -20 -60 -32 -69 -93
-112 -237 -167 -56 -21 -122 -50 -147 -64 -110 -65 -180 -179 -190 -308 -7
-91 0 -121 29 -134 21 -9 20 -11 -24 -41 -103 -71 -160 -174 -162 -292 0 -36
5 -84 13 -107 l14 -42 -43 -48 c-24 -26 -57 -77 -73 -113 -27 -56 -31 -76 -31
-150 -1 -76 3 -93 32 -154 17 -37 32 -73 32 -79 0 -6 -22 -48 -49 -92 -106
-173 -147 -330 -138 -535 7 -179 54 -319 156 -470 37 -55 38 -67 6 -129 -63
-126 -41 -329 45 -406 38 -33 50 -75 38 -126 -15 -67 -5 -168 24 -230 14 -30
50 -81 79 -113 l54 -60 -2 -70 c-6 -166 74 -296 221 -361 l53 -24 6 -108 c8
-173 73 -357 174 -494 62 -84 181 -189 274 -242 98 -55 147 -72 183 -63 l26 6
-23 38 c-17 26 -46 49 -99 77 -102 54 -167 105 -231 178 -176 203 -232 382
-205 647 18 165 17 204 -7 230 l-19 21 26 -10 c14 -5 59 -26 99 -46 62 -32 76
-35 97 -26 13 7 26 10 27 9 6 -7 -37 -155 -51 -176 -13 -20 -22 -23 -52 -20
-21 3 -45 8 -54 12 -12 6 -21 0 -33 -24 -9 -18 -14 -34 -12 -36 2 -3 29 -17
58 -32 l54 -27 7 -95 c4 -52 13 -115 19 -140 34 -127 112 -222 228 -276 162
-76 181 -106 192 -288 10 -180 43 -254 141 -317 41 -26 55 -31 89 -26 22 3 43
8 46 11 6 6 -82 119 -117 151 -27 25 -50 67 -50 95 0 11 1 20 3 20 1 1 38 7
81 15 107 19 120 33 140 150 21 119 20 177 -5 298 -36 177 -108 334 -233 509
-23 32 -32 54 -29 69 6 20 10 21 87 15 128 -10 269 -28 294 -37 34 -13 27 -35
-27 -85 -69 -64 -95 -127 -89 -221 6 -93 25 -123 76 -123 49 0 121 45 161 100
29 40 41 69 72 170 18 59 35 61 139 10 89 -42 154 -52 204 -29 19 9 24 18 23
45 -2 54 25 72 118 84 162 19 378 31 388 21 12 -12 -15 -78 -46 -118 -44 -55
-73 -61 -332 -65 -283 -5 -306 -11 -395 -98 -72 -70 -95 -132 -91 -248 1 -23
11 -43 32 -64 29 -29 33 -30 97 -26 76 6 133 30 192 84 78 70 109 146 84 201
-9 18 -19 33 -22 33 -15 0 -70 -52 -76 -72 -6 -24 -158 -148 -181 -148 -7 0
-18 6 -25 14 -9 12 -1 31 44 99 30 46 62 90 71 97 25 21 187 34 272 21 78 -12
123 -30 161 -64 17 -16 22 -31 22 -69 0 -104 -64 -186 -169 -218 -190 -59
-292 -68 -529 -46 -200 18 -212 19 -231 7 -12 -8 -10 -15 11 -43 22 -28 38
-36 114 -56 204 -52 347 -60 644 -37 108 9 122 -2 200 -157 71 -139 227 -403
274 -463 17 -22 59 -71 94 -110 58 -65 62 -70 41 -75 -25 -6 -57 -90 -104
-270 -14 -52 -30 -112 -36 -133 -6 -24 -16 -37 -27 -37 -9 0 -50 34 -91 76
l-73 77 58 31 c69 37 109 88 125 162 10 46 9 67 -5 137 -25 117 -23 115 -93
93 -194 -60 -254 -161 -220 -373 l9 -53 -29 5 c-241 40 -320 68 -369 132 -31
41 -54 94 -54 126 0 20 6 25 38 31 198 32 420 301 410 498 -3 53 -7 64 -31 81
l-27 21 -98 -23 c-128 -31 -214 -66 -265 -108 -158 -130 -212 -408 -118 -598
75 -150 226 -236 411 -234 97 1 123 9 130 38 5 21 9 18 47 -36 88 -125 233
-229 336 -240 54 -6 57 -1 57 142 0 103 23 223 56 300 10 22 20 56 23 77 l6
36 70 -65 c157 -146 288 -251 383 -308 56 -33 101 -64 101 -70 0 -5 -20 -25
-45 -43 -42 -31 -47 -32 -67 -19 -43 29 -233 190 -289 245 -32 31 -59 54 -61
51 -2 -2 -18 -40 -35 -84 -28 -68 -32 -93 -32 -167 0 -109 18 -160 65 -182 39
-19 67 -20 150 -5 87 15 93 20 65 59 -12 17 -20 33 -18 35 2 2 51 -27 108 -65
207 -134 439 -231 639 -264 107 -18 338 -21 446 -6 157 23 327 77 497 159 46
22 96 51 112 64 l29 23 -38 23 c-44 26 -42 35 4 21 44 -12 207 -30 307 -32
108 -3 134 12 134 80 0 52 -27 297 -36 325 -3 9 -13 17 -23 17 -17 0 -271
-264 -271 -281 0 -5 28 -9 63 -9 61 0 63 1 115 51 29 29 55 49 58 47 2 -3 7
-27 10 -54 5 -44 3 -52 -21 -74 -40 -38 -79 -34 -325 35 -32 9 -72 13 -95 10
l-40 -6 25 20 c14 11 129 104 255 208 185 151 234 196 251 232 l21 43 22 -31
c33 -46 79 -154 96 -224 9 -34 18 -117 22 -185 9 -176 12 -176 225 -37 53 35
106 73 117 84 25 25 27 63 6 81 -9 7 -14 15 -12 17 2 2 44 -6 93 -18 102 -24
222 -22 311 6 114 35 243 169 243 253 0 31 -2 34 -22 28 -13 -3 -29 -6 -36 -6
-7 0 -46 -31 -86 -69 -85 -80 -133 -107 -225 -127 -195 -40 -401 83 -401 239
0 43 9 54 36 49 21 -4 34 -23 75 -108 32 -67 59 -110 78 -123 l29 -21 16 34
c13 28 14 44 6 87 -27 142 -108 217 -262 244 l-36 7 -18 -59 c-24 -77 -23
-165 3 -224 21 -47 92 -127 147 -165 l29 -21 -82 -61 c-77 -58 -103 -67 -114
-38 -20 53 -158 478 -155 480 69 43 98 69 160 143 132 156 214 289 274 443 68
178 67 178 233 156 107 -14 123 -14 326 9 117 13 263 31 324 39 62 9 114 16
116 16 3 0 5 -19 5 -42 0 -94 34 -157 97 -184 43 -18 181 -18 261 1 210 50
435 226 554 435 83 147 132 371 94 438 l-13 24 -31 -37 c-22 -25 -32 -46 -32
-69 0 -53 -37 -183 -75 -262 -62 -129 -216 -299 -324 -360 -52 -29 -151 -64
-179 -64 -19 0 -19 8 -15 158 2 86 9 180 15 207 26 124 119 252 229 314 59 33
91 77 67 92 -88 56 -308 -137 -369 -322 -22 -67 -24 -91 -24 -254 0 -177 0
-179 23 -191 20 -10 21 -12 7 -18 -9 -3 -39 -6 -67 -6 -43 0 -54 4 -83 33 -36
36 -56 100 -37 119 6 6 30 11 54 11 52 -1 78 11 78 36 0 28 -24 42 -82 50
l-53 6 2 41 c2 51 44 176 89 265 41 82 119 187 189 256 66 64 192 153 216 153
28 0 45 -35 75 -154 25 -100 26 -116 17 -183 -21 -144 -110 -263 -248 -333
-63 -32 -70 -38 -70 -65 0 -27 3 -30 37 -33 26 -2 56 7 106 32 155 78 245 205
258 361 3 44 14 99 24 122 23 54 85 98 158 114 126 27 234 92 288 173 29 45
36 66 45 141 15 140 30 178 99 270 49 65 60 107 60 235 l0 105 62 129 c54 113
62 136 62 190 1 53 -4 70 -39 131 -22 39 -38 77 -36 84 1 8 23 43 47 76 54 76
108 189 131 275 26 93 25 383 0 493 -24 101 -77 206 -136 266 l-47 49 28 56
c67 132 73 250 19 360 -39 80 -64 106 -92 99 -19 -5 -21 -3 -15 13 4 10 15 53
23 94 27 129 -4 229 -100 328 l-52 53 -5 132 c-4 115 -9 139 -31 187 -14 31
-41 73 -59 94 -31 35 -96 76 -120 76 -5 0 -10 -22 -10 -50 0 -45 4 -54 46
-102 102 -114 108 -191 30 -401 -27 -70 -56 -137 -66 -149 l-17 -22 -81 19
c-44 10 -86 21 -92 25 -7 4 1 32 26 83 35 75 38 100 15 135 -15 25 -65 -12
-111 -82 -23 -37 -45 -66 -49 -66 -8 0 -79 120 -93 157 -9 24 -7 37 11 77 19
44 23 48 48 42 16 -4 98 -40 184 -81 117 -57 166 -75 197 -75 23 0 42 3 42 8
0 24 -48 77 -97 109 -32 20 -59 37 -61 38 -1 1 6 17 15 36 16 29 18 63 18 249
0 199 -2 224 -27 330 -57 237 -146 359 -335 452 -57 29 -103 55 -103 59 0 5 8
12 17 17 15 9 15 15 5 48 -32 107 -112 194 -214 232 -120 46 -129 51 -119 70
14 26 -22 124 -75 204 -112 169 -361 328 -513 328 -38 0 -59 -19 -45 -41 3 -5
1 -9 -4 -9 -5 0 -17 19 -27 43 -49 113 -131 206 -207 234 -18 7 -64 12 -102
12 -65 1 -70 3 -105 39 -21 20 -44 46 -52 58 -26 38 -98 82 -164 99 -54 15
-76 16 -123 8 -53 -10 -57 -9 -74 13 -34 43 -170 145 -240 180 -127 64 -195
75 -423 72 l-200 -3 -85 40 c-76 35 -93 39 -165 39 -68 1 -88 -3 -132 -27 -66
-34 -78 -34 -132 3 -80 55 -171 71 -242 45z m-245 -156 c15 -13 -84 -69 -123
-69 -41 0 -133 30 -129 42 2 5 32 26 67 47 l64 38 56 -25 c31 -13 60 -28 65
-33z m421 42 c41 -18 57 -34 68 -64 6 -16 5 -16 -18 -1 -22 15 -29 14 -85 -5
-33 -12 -65 -21 -70 -21 -12 0 -90 69 -90 80 0 30 136 38 195 11z m454 -42
l54 -31 -73 -31 -72 -30 -79 39 c-44 21 -79 43 -79 50 0 14 75 31 145 33 39 1
62 -6 104 -30z m547 -37 c15 -8 10 -12 -36 -26 -49 -15 -58 -15 -107 1 -29 9
-53 20 -53 24 0 19 161 20 196 1z m-1287 -28 c17 -14 31 -33 31 -43 0 -9 -30
-39 -66 -66 -37 -28 -117 -103 -179 -167 -79 -83 -120 -120 -141 -124 -23 -4
-58 6 -138 40 -161 69 -224 88 -265 82 l-36 -6 31 27 c17 16 73 64 125 107 52
44 101 85 110 93 15 12 25 11 80 -13 76 -31 181 -41 259 -25 71 15 134 58 138
94 4 34 12 34 51 1z m424 -24 c160 -102 256 -111 404 -40 34 17 68 30 76 30
12 0 71 -43 220 -162 21 -17 26 -17 82 -2 33 9 62 17 64 19 2 2 -22 34 -54 70
-32 36 -53 65 -47 65 6 0 72 -25 147 -55 117 -47 139 -53 160 -43 34 15 32 28
-15 73 -50 49 -51 60 -2 40 32 -14 152 -120 152 -135 0 -3 -19 -4 -42 -2 -40
3 -417 -100 -722 -198 -153 -49 -163 -46 -290 88 -38 39 -107 105 -153 145
-45 39 -83 76 -83 81 0 11 40 56 50 56 3 0 27 -13 53 -30z m-182 -127 c41 -44
134 -184 167 -249 66 -131 62 -192 -16 -270 -25 -24 -48 -44 -52 -44 -3 0 -6
53 -5 118 0 107 -2 121 -25 162 -33 58 -58 60 -84 5 -13 -25 -20 -61 -20 -100
-1 -55 3 -67 37 -116 45 -66 47 -97 6 -144 -37 -42 -69 -45 -120 -11 -43 29
-71 83 -77 147 -6 65 12 111 69 176 26 30 53 71 60 90 12 37 9 157 -5 170 -4
4 -34 -21 -67 -55 -68 -74 -99 -146 -99 -228 0 -51 -21 -114 -38 -114 -14 0
-62 98 -62 127 0 94 70 208 186 306 78 66 107 71 145 30z m1477 -118 c66 -75
152 -263 152 -332 0 -57 -33 -80 -83 -59 -27 11 -337 324 -337 339 0 3 36 17
80 32 44 15 90 35 102 45 33 28 42 25 86 -25z m209 20 c28 -8 62 -24 76 -35
24 -19 57 -78 72 -129 l8 -25 -32 27 c-20 17 -44 27 -63 27 -44 0 -108 41
-146 93 -17 25 -32 48 -32 51 0 11 66 6 117 -9z m489 -281 c19 -46 18 -52 -15
-59 -63 -14 -192 75 -222 152 -22 57 -5 57 112 -3 93 -48 113 -62 125 -90z
m-1093 125 c13 -6 37 -32 53 -57 16 -26 66 -102 111 -169 111 -164 180 -287
188 -333 9 -54 -10 -144 -45 -216 -31 -63 -112 -149 -133 -141 -20 7 -10 137
19 255 19 78 25 122 21 165 -10 107 -82 191 -194 223 -75 22 -87 16 -69 -33 8
-21 31 -90 51 -153 20 -65 54 -144 77 -183 25 -41 42 -84 45 -111 13 -116 -75
-299 -163 -341 -28 -13 -38 -14 -44 -5 -8 14 15 106 51 198 33 86 32 181 -4
255 -31 63 -91 119 -122 115 -16 -2 -21 -13 -27 -53 -17 -133 -6 -226 38 -324
33 -71 39 -107 25 -156 -17 -64 -67 -113 -206 -203 -225 -146 -267 -174 -389
-260 -156 -109 -170 -116 -190 -97 -21 22 -36 80 -36 145 0 103 73 215 158
244 42 15 48 15 58 1 10 -13 29 -8 150 43 160 66 170 80 92 120 -56 29 -144
32 -202 8 -21 -9 -78 -55 -126 -102 -68 -66 -93 -85 -111 -82 -20 2 -24 10
-27 45 -5 73 46 156 119 193 21 11 70 24 109 30 39 6 92 21 119 35 62 31 133
102 161 160 28 58 33 148 9 153 -22 4 -204 -74 -255 -110 -22 -16 -60 -59 -84
-96 -46 -69 -117 -152 -130 -152 -20 0 6 91 43 155 71 123 189 296 212 311 37
24 88 27 148 10 68 -20 90 -20 154 -1 62 18 133 79 158 135 18 40 18 43 2 55
-20 15 -70 11 -162 -11 -60 -15 -137 -57 -170 -94 -19 -21 -35 -26 -35 -11 0
20 151 199 191 226 38 27 49 30 113 28 232 -8 231 -8 266 12 18 11 35 25 37
32 2 6 -17 24 -42 39 -41 24 -53 26 -116 22 -38 -3 -69 -3 -69 1 1 12 118 91
136 91 7 0 24 -5 37 -11z m-3118 -49 l30 -12 -30 -11 c-16 -5 -58 -29 -92 -53
-83 -57 -172 -80 -211 -55 -16 9 94 115 142 138 35 15 113 12 161 -7z m3916
-56 c40 -71 84 -115 144 -144 39 -19 58 -22 117 -18 63 5 72 3 96 -18 l27 -23
-30 -1 c-46 0 -283 29 -334 42 -78 19 -121 55 -121 101 0 21 49 117 59 117 5
0 24 -25 42 -56z m-3813 26 c43 -26 44 -71 3 -127 -41 -56 -93 -74 -271 -93
-119 -13 -137 -20 -146 -57 -12 -45 10 -51 179 -51 137 1 161 -2 242 -26 120
-36 220 -84 335 -161 126 -84 250 -184 250 -201 0 -30 -47 -13 -90 32 -64 65
-97 82 -167 88 -34 2 -63 2 -66 -1 -11 -10 55 -102 86 -122 41 -25 130 -51
176 -51 49 -1 121 -28 175 -67 45 -32 136 -144 136 -167 -1 -43 -17 -37 -281
92 -291 142 -295 143 -287 62 9 -92 77 -183 173 -231 47 -23 60 -24 230 -25
184 -1 231 -8 249 -37 17 -27 0 -31 -76 -18 -54 9 -85 10 -120 2 -52 -12 -198
-68 -211 -81 -11 -10 27 -46 75 -71 87 -45 163 -34 256 36 77 58 111 60 159 8
72 -79 313 -383 323 -407 19 -51 -34 -30 -155 63 -117 90 -209 103 -315 45
-58 -32 -160 -125 -160 -146 0 -11 27 -18 108 -27 154 -17 263 -16 336 4 106
29 182 -7 241 -116 37 -69 115 -271 108 -282 -8 -14 -19 4 -37 59 -34 103
-114 162 -245 180 -65 8 -65 2 -2 -102 60 -97 120 -155 187 -179 62 -23 71
-31 94 -76 40 -78 34 -171 -13 -204 -30 -21 -104 -18 -157 6 -96 43 -130 101
-141 240 -9 110 -26 153 -85 212 -42 41 -164 107 -199 107 l-23 0 24 -76 c29
-97 56 -140 147 -242 67 -74 98 -122 78 -122 -10 0 -236 139 -354 217 -158
106 -192 162 -167 281 23 113 19 263 -10 359 -14 46 -28 83 -32 83 -13 0 -86
-104 -112 -160 -48 -102 -35 -179 50 -303 19 -27 34 -53 34 -58 0 -18 -39 -8
-106 26 -116 57 -135 102 -128 288 5 112 3 130 -24 227 -35 128 -51 136 -96
47 -54 -105 -43 -227 29 -321 37 -49 49 -116 21 -116 -42 0 -155 186 -177 291
-6 28 -9 93 -7 143 5 114 26 163 107 249 65 71 74 96 69 187 -3 47 -6 55 -24
58 -15 2 -30 -11 -56 -51 -56 -84 -88 -153 -88 -191 0 -19 -9 -44 -20 -57
l-19 -24 -1 34 c0 38 11 68 141 378 49 117 89 221 89 232 0 23 -52 66 -91 76
-38 9 -55 -11 -166 -200 -56 -93 -110 -178 -121 -189 -21 -18 -21 -18 -27 7
-4 14 -2 34 4 45 14 26 14 112 1 147 -7 19 -109 184 -126 203 -1 2 -11 1 -22
-3 -27 -8 -52 -83 -52 -154 0 -72 30 -136 104 -220 75 -86 83 -134 34 -204
-30 -42 -68 -57 -150 -57 -131 0 -185 51 -173 165 15 144 114 667 129 683 7 7
51 17 98 22 93 9 128 23 183 72 42 36 65 76 65 113 0 31 22 33 68 5z m4397
-202 c177 -58 295 -157 380 -318 39 -74 57 -98 82 -110 18 -8 33 -18 33 -21 0
-4 -18 -9 -39 -13 -48 -7 -55 -16 -40 -50 13 -27 36 -38 116 -56 77 -17 151
-66 189 -125 18 -27 44 -62 58 -76 14 -15 26 -29 26 -32 0 -3 -17 -1 -37 4
-56 13 -117 11 -137 -4 -17 -13 -17 -16 -2 -44 17 -33 74 -57 199 -84 60 -13
109 -38 75 -39 -9 0 -29 5 -43 12 -21 9 -29 9 -41 -4 -13 -13 -14 -26 -5 -93
6 -43 14 -151 18 -239 7 -188 1 -218 -57 -270 -42 -38 -79 -51 -255 -91 -117
-26 -170 -31 -180 -15 -11 19 29 62 84 90 66 33 105 69 134 125 27 51 32 218
7 223 -21 4 -155 -121 -185 -172 -14 -24 -30 -69 -36 -102 -20 -110 -44 -133
-166 -165 -83 -21 -168 -25 -178 -9 -7 12 19 58 44 77 9 7 35 22 58 33 82 41
152 136 203 277 30 82 23 98 -35 90 -90 -13 -186 -83 -230 -167 -9 -18 -22
-59 -30 -93 -18 -87 -29 -110 -68 -149 -50 -50 -102 -72 -172 -73 -112 0 -178
61 -141 132 22 43 218 284 259 321 42 36 39 35 162 37 84 1 95 3 177 43 71 35
85 45 81 61 -12 46 -172 68 -250 36 -20 -9 -60 -34 -88 -55 -99 -76 -99 -61
-3 193 l11 28 11 -23 c6 -12 31 -30 56 -39 74 -29 693 -238 720 -244 l26 -6
-6 63 c-3 35 -8 68 -12 74 -4 6 -25 16 -47 24 -57 18 -110 66 -132 117 -15 35
-19 69 -19 157 0 75 -4 117 -12 128 -14 17 -59 48 -69 48 -14 0 -22 -39 -28
-137 -7 -110 -22 -143 -66 -143 -30 0 -145 40 -239 84 -88 40 -111 44 -138 19
-17 -15 -18 -15 -18 13 0 97 55 166 168 208 45 18 72 33 72 43 0 31 -44 75
-110 108 -105 53 -170 121 -195 202 -6 22 -6 22 37 7 150 -53 259 -169 314
-337 34 -105 88 -218 115 -242 17 -16 22 -17 29 -5 19 31 -37 255 -94 375 -87
184 -189 260 -445 331 -61 17 -63 18 -43 32 13 8 22 25 22 39 0 23 3 24 32 17
18 -3 60 -15 93 -26z m-4933 -23 c-3 -35 -32 -105 -43 -105 -4 0 -9 10 -11 23
-4 31 -45 26 -128 -15 -105 -53 -270 -229 -270 -288 0 -6 9 -14 20 -18 16 -6
6 -11 -41 -23 l-61 -16 6 36 c4 20 25 73 47 118 46 92 125 180 213 239 69 46
180 85 231 82 38 -3 40 -5 37 -33z m4692 -122 l138 -17 -26 -19 c-26 -18 -26
-20 -26 -148 0 -123 -16 -368 -26 -399 -3 -9 -14 0 -30 28 -14 23 -28 42 -32
42 -20 0 -249 31 -265 36 -18 6 -18 6 0 26 10 11 38 31 63 43 99 51 132 109
138 243 3 58 0 98 -6 104 -7 7 -28 -3 -69 -35 -88 -67 -142 -147 -158 -232 -9
-50 -26 -83 -59 -115 -21 -19 -40 -25 -89 -28 -57 -4 -66 -2 -96 24 -33 28
-34 29 -28 93 12 131 75 260 153 312 96 64 176 72 418 42z m-4750 -40 c-20
-83 -78 -154 -159 -196 -41 -20 -155 -50 -164 -42 -11 12 173 180 244 223 39
23 73 42 78 42 4 0 4 -12 1 -27z m-380 -359 c39 3 105 0 146 -7 l75 -12 3 -89
c6 -175 -31 -252 -134 -282 -33 -9 -66 -13 -90 -8 -39 7 -101 56 -123 98 -13
23 -10 29 41 98 81 108 88 120 88 145 0 17 -6 23 -20 23 -31 0 -75 -26 -94
-55 -25 -38 -29 -25 -16 42 17 88 18 90 36 64 15 -21 22 -22 88 -17z m-251
-69 c-5 -60 -3 -79 11 -100 16 -25 16 -25 -11 -36 -71 -28 -167 -59 -171 -54
-13 12 154 265 175 265 1 0 0 -34 -4 -75z m17 -296 c-14 -48 -59 -100 -104
-120 -47 -20 -186 -60 -186 -53 0 3 9 17 19 32 11 15 24 56 30 91 13 77 20 87
58 74 18 -6 55 -5 103 2 41 6 78 9 82 8 3 -2 3 -17 -2 -34z m5288 26 c35 8 68
12 74 9 12 -8 4 -40 -29 -112 -49 -109 -115 -196 -238 -317 -67 -66 -164 -169
-215 -228 -58 -68 -119 -127 -163 -158 -75 -52 -181 -106 -227 -115 -25 -6
-27 -4 -23 19 10 51 59 95 131 117 102 31 172 92 213 185 19 42 28 109 17 120
-2 3 -59 -22 -125 -55 -135 -67 -190 -116 -212 -192 -22 -73 -60 -138 -109
-187 -48 -48 -181 -141 -201 -141 -36 0 31 116 116 199 68 66 98 138 98 236 0
66 -5 89 -25 129 -14 27 -31 51 -36 53 -11 4 -118 -177 -152 -258 -11 -26 -25
-86 -31 -134 -13 -104 -48 -188 -109 -256 -74 -84 -182 -138 -217 -109 -13 10
-12 17 6 51 11 22 42 62 70 90 64 65 97 135 109 235 20 166 28 249 24 253 -11
11 -96 -41 -152 -93 -110 -103 -143 -202 -117 -351 13 -72 13 -89 0 -132 -19
-64 -83 -129 -145 -147 -80 -23 -110 6 -110 109 0 105 17 174 66 270 142 275
340 480 604 623 108 58 175 75 279 70 78 -4 95 -9 183 -52 92 -46 100 -48 165
-44 78 5 131 27 180 76 36 36 73 90 73 107 0 18 -275 0 -366 -23 -64 -16 -90
-19 -125 -11 -74 16 -76 18 -36 45 31 21 84 32 354 77 254 42 320 50 328 40 8
-10 22 -10 73 2z m1354 -162 c40 -41 86 -132 95 -188 7 -41 -4 -44 -44 -12
-31 26 -97 67 -107 67 -12 0 -6 -92 9 -120 8 -15 30 -41 49 -57 34 -28 122
-160 113 -170 -9 -8 -47 17 -94 60 -83 76 -117 177 -129 380 l-7 119 39 -20
c21 -11 56 -38 76 -59z m-5786 -80 c79 -42 154 -161 154 -244 0 -27 -2 -29
-20 -19 -11 6 -27 27 -35 48 -35 82 -101 121 -207 122 -82 0 -84 -7 -29 -77
74 -94 150 -143 220 -143 41 0 127 -95 172 -187 22 -47 39 -92 37 -101 -6 -33
-58 -47 -168 -47 -96 0 -109 2 -150 27 -25 14 -58 40 -75 58 -29 30 -30 35
-35 148 -5 98 -10 125 -30 166 -27 52 -76 99 -122 115 l-27 10 3 -117 c3 -152
29 -215 120 -299 56 -52 85 -87 86 -105 0 -14 -63 -8 -110 9 -124 47 -190 117
-209 224 -5 33 -20 76 -32 96 -50 81 -203 163 -238 129 -13 -13 -13 -20 1 -53
9 -21 21 -63 27 -94 15 -70 65 -156 110 -186 19 -13 60 -30 90 -39 75 -20 99
-33 138 -72 34 -34 36 -52 4 -52 -10 0 -24 -6 -30 -14 -9 -11 -43 -2 -194 54
-322 118 -405 157 -463 215 -59 59 -88 125 -102 231 -15 101 -13 103 165 147
82 20 160 37 172 37 43 0 16 -25 -82 -75 -110 -56 -109 -56 -132 -196 -14 -93
-17 -92 74 -29 66 44 86 69 124 153 69 152 177 186 587 183 150 -1 169 -3 206
-23z m5935 -598 c6 -55 17 -117 24 -139 8 -22 13 -42 11 -43 -2 -2 -53 19
-113 47 -163 74 -220 66 -260 -38 -43 -111 -10 -241 79 -316 l43 -36 -61 0
c-55 0 -68 4 -125 41 -104 67 -268 207 -275 235 -7 28 14 66 49 89 13 8 151
67 307 130 156 63 288 119 293 124 6 6 12 9 14 8 1 -2 7 -48 14 -102z m-7190
59 c24 -9 80 -42 124 -72 44 -29 133 -88 198 -130 64 -43 120 -85 123 -95 7
-24 -5 -38 -85 -94 -71 -50 -107 -79 -189 -155 -62 -56 -120 -88 -159 -88 -54
0 -53 14 5 60 80 64 122 147 122 238 -1 194 -141 256 -281 125 l-48 -45 -16
59 c-37 131 -50 153 -95 153 -50 0 -55 -19 -36 -130 23 -143 27 -133 -56 -159
-40 -13 -79 -26 -87 -29 -12 -4 -13 10 -8 85 9 138 38 193 131 240 120 61 258
75 357 37z m19 -361 l0 -86 -41 -39 c-63 -60 -78 -52 -116 62 -17 52 -32 100
-32 105 -1 15 161 57 182 47 4 -2 7 -42 7 -89z m-260 -76 c36 -61 66 -116 68
-122 1 -5 -38 -32 -88 -58 l-89 -48 -41 80 c-22 44 -49 85 -60 91 -32 17 -24
30 43 60 72 32 86 46 89 84 1 14 5 26 8 26 3 -1 34 -51 70 -113z m6313 54
c154 -41 288 -123 352 -216 l39 -56 6 -132 c7 -158 18 -186 116 -284 35 -36
78 -85 96 -109 17 -24 35 -44 39 -44 19 0 41 114 37 189 -6 99 -42 173 -129
266 -78 83 -169 202 -169 221 0 23 31 16 105 -22 101 -52 181 -112 259 -194
119 -127 133 -204 63 -340 -53 -100 -67 -165 -74 -329 l-6 -144 43 24 c23 13
60 43 80 67 89 100 107 204 71 404 -34 189 -29 201 54 143 80 -54 79 -53 59
-135 -33 -138 -2 -253 92 -339 54 -49 55 -63 10 -173 -103 -257 -108 -493 -14
-751 13 -36 36 -72 60 -96 l39 -38 -50 -38 c-138 -105 -188 -249 -128 -368
l24 -46 -53 -55 c-29 -30 -62 -72 -72 -93 -22 -42 -43 -139 -37 -169 2 -11 6
-31 10 -46 3 -16 12 -28 20 -28 26 0 16 -14 -41 -53 -30 -21 -72 -60 -93 -86
-51 -65 -65 -122 -58 -222 l6 -79 -212 0 c-142 0 -251 5 -327 16 -171 24 -367
14 -530 -26 -349 -87 -676 -29 -967 172 -42 29 -128 100 -191 158 -206 191
-286 261 -344 301 -84 57 -134 114 -174 194 -42 86 -61 175 -74 350 -20 269
24 521 133 755 73 159 82 234 43 391 -14 59 -26 133 -26 166 0 166 118 361
240 397 144 43 281 -9 371 -141 29 -42 130 -126 261 -216 75 -53 78 -52 78 43
0 80 -32 177 -75 227 -46 54 -143 102 -226 113 -82 10 -159 30 -159 41 0 4 21
23 48 41 41 29 55 33 108 33 53 0 68 -5 130 -42 93 -57 135 -73 188 -73 24 0
87 -11 140 -25 53 -14 99 -25 101 -25 10 0 -8 56 -37 113 -63 126 -142 179
-273 185 -76 4 -90 0 -283 -62 -258 -84 -288 -85 -197 -11 66 55 401 189 597
241 119 31 358 -8 415 -68 l28 -29 1 -172 c1 -169 1 -174 37 -286 20 -62 39
-116 43 -120 9 -9 98 91 120 135 14 29 19 60 19 119 0 93 -22 146 -104 249
-43 55 -81 115 -81 131 0 9 52 6 94 -6 21 -6 59 -30 84 -53 43 -41 44 -44 52
-124 14 -138 34 -169 254 -402 l80 -85 14 45 c9 30 12 78 9 141 -3 81 -9 106
-34 160 -42 89 -98 148 -206 215 -177 111 -327 214 -327 226 0 19 311 4 403
-21z m-4553 5 c0 -8 -80 -81 -177 -163 -344 -287 -366 -318 -366 -513 0 -89 3
-114 24 -164 30 -74 53 -91 78 -57 26 34 130 246 152 308 10 29 23 95 28 145
6 51 18 116 28 143 22 66 105 151 157 160 20 4 39 5 42 2 12 -12 -10 -48 -61
-102 -64 -68 -88 -129 -87 -224 1 -72 33 -191 57 -211 19 -16 27 -6 83 100 52
99 64 159 57 290 -8 134 4 161 91 205 51 26 70 30 139 30 70 0 94 -5 195 -44
132 -50 330 -137 344 -151 32 -32 -75 -68 -224 -77 -110 -6 -151 -17 -212 -60
-67 -46 -130 -167 -142 -273 -10 -82 2 -91 62 -47 27 19 83 51 124 70 89 41
150 93 189 162 16 28 39 61 52 73 52 49 181 67 268 37 99 -35 214 -142 178
-166 -8 -6 -36 -7 -64 -5 -171 19 -239 18 -285 -2 -63 -27 -125 -94 -167 -180
-32 -63 -35 -75 -22 -87 12 -12 22 -12 74 0 33 8 90 21 128 29 76 17 139 56
181 111 58 75 130 94 197 52 69 -43 335 -333 405 -442 73 -115 120 -274 130
-440 5 -85 2 -126 -25 -280 -77 -439 -106 -517 -260 -707 -86 -106 -125 -166
-183 -284 -112 -225 -184 -297 -398 -401 -505 -245 -572 -267 -785 -267 -123
1 -160 6 -310 38 -229 51 -406 59 -572 27 -89 -17 -146 -21 -278 -20 -187 1
-205 -4 -225 -66 -16 -47 0 -71 82 -127 181 -122 306 -297 380 -533 l28 -90
-21 -17 c-27 -22 -111 -24 -129 -4 -6 8 -16 48 -21 88 -26 203 -137 357 -320
445 -91 44 -88 37 -59 169 11 49 25 152 32 230 11 137 11 141 -11 186 -12 26
-38 57 -60 73 -54 37 -67 72 -63 179 3 78 0 94 -22 140 -14 28 -44 73 -67 101
-40 49 -41 50 -32 105 22 150 -4 243 -96 337 -28 29 -51 59 -51 66 0 7 16 52
35 99 66 162 79 225 79 403 1 180 -13 249 -79 406 -19 46 -35 90 -35 98 0 8
25 40 55 72 75 78 100 134 99 224 0 39 -6 87 -13 107 -21 62 -28 53 211 236
79 59 98 64 98 25 0 -25 -21 -70 -99 -218 -64 -122 -20 -260 117 -372 50 -41
96 -62 109 -49 13 13 -29 362 -53 439 -55 178 -15 301 138 421 97 78 201 138
298 173 60 21 93 27 169 27 65 1 95 -3 98 -11 5 -14 -128 -115 -228 -173 -80
-48 -143 -114 -177 -188 -46 -100 -39 -285 11 -316 16 -9 25 -4 59 34 56 62
156 196 177 239 10 20 26 69 35 110 28 129 94 210 200 250 32 12 146 34 254
50 233 35 252 36 252 17z m6028 -150 c13 -18 36 -65 53 -104 27 -65 28 -75 18
-120 l-10 -50 -32 10 c-50 17 -135 75 -141 96 -9 28 63 202 83 202 3 0 16 -15
29 -34z m-8036 -81 c21 -55 37 -103 36 -107 -2 -5 -47 -28 -101 -52 -110 -50
-101 -55 -98 59 1 33 10 78 21 103 21 46 76 105 93 99 5 -1 27 -48 49 -102z
m7738 -121 l70 -37 -65 -68 c-36 -38 -65 -74 -65 -79 0 -6 -4 -10 -10 -10 -5
0 -10 12 -10 26 0 16 -17 43 -49 77 -79 85 -82 100 -34 165 l25 33 34 -35 c19
-19 65 -51 104 -72z m-7329 59 c17 -44 6 -120 -22 -150 -28 -30 -129 -106
-134 -101 -2 2 -18 38 -35 81 -42 105 -37 112 110 173 70 29 68 29 81 -3z
m-284 -198 c30 -55 44 -71 66 -75 26 -5 21 -10 -73 -77 -56 -40 -105 -73 -109
-73 -12 0 -103 158 -99 174 1 8 37 44 78 80 86 74 80 76 137 -29z m7816 23
l89 -42 -5 -36 c-5 -41 -58 -170 -70 -170 -4 0 -33 19 -63 42 -36 27 -71 44
-98 48 -22 3 -40 10 -39 15 8 34 80 185 88 185 5 0 50 -19 98 -42z m267 -218
c31 -79 25 -157 -19 -227 -18 -29 -36 -53 -40 -53 -4 0 -39 44 -77 98 l-71 98
81 113 80 114 12 -44 c6 -24 21 -69 34 -99z m-8347 22 c45 -87 50 -114 33
-155 -17 -41 -92 -107 -121 -107 -49 0 -73 146 -40 241 18 50 61 100 81 92 7
-2 28 -35 47 -71z m7921 -49 c28 -27 68 -63 89 -81 l38 -32 -47 -76 c-63 -99
-65 -100 -103 -68 -71 60 -94 162 -58 257 10 26 21 47 24 47 3 0 29 -21 57
-47z m-7534 -24 c19 -36 20 -46 10 -95 -9 -42 -22 -65 -59 -106 -26 -28 -52
-49 -58 -45 -13 8 -83 151 -83 170 0 8 7 21 16 28 21 17 136 87 146 88 4 1 17
-17 28 -40z m7834 -232 l39 -33 -48 -82 -48 -82 -61 35 c-33 20 -68 39 -76 44
-12 8 -7 26 29 110 l43 101 42 -30 c22 -17 58 -45 80 -63z m-8091 49 c13 -14
34 -48 47 -76 20 -42 22 -54 12 -68 -7 -9 -29 -43 -50 -74 -20 -32 -39 -58
-42 -58 -3 0 -36 31 -74 69 l-68 68 15 30 c20 38 109 133 125 133 7 0 23 -11
35 -24z m-189 -225 c31 -54 24 -101 -33 -219 -63 -132 -78 -206 -62 -304 15
-89 54 -175 119 -261 l52 -68 -26 -9 c-14 -6 -37 -23 -51 -40 -13 -16 -31 -30
-38 -30 -22 0 -66 60 -103 139 -94 203 -94 489 0 676 33 64 100 156 112 152 6
-2 19 -18 30 -36z m8454 -72 c69 -137 94 -233 95 -374 0 -126 -25 -250 -69
-337 -28 -56 -104 -168 -113 -168 -7 0 -77 108 -86 131 -4 11 12 41 49 88 119
155 137 323 51 497 -19 39 -53 94 -76 123 -23 28 -40 53 -38 55 54 49 116 95
124 93 5 -2 34 -50 63 -108z m-319 -79 c-57 -50 -90 -143 -96 -275 -7 -124 10
-196 71 -318 l44 -88 -41 -26 c-23 -14 -53 -32 -66 -40 -13 -8 -26 -11 -31 -6
-11 12 -77 249 -90 322 -16 91 -14 243 4 331 15 69 65 191 103 250 l16 24 63
-69 63 -70 -40 -35z m-7779 53 c48 -130 64 -221 65 -368 0 -165 -13 -224 -80
-363 l-44 -92 -39 38 c-63 62 -64 58 13 242 33 78 44 197 25 294 -7 37 -33
108 -60 163 -27 54 -47 99 -47 99 1 1 26 15 56 32 68 38 82 32 111 -45z m7892
-100 c112 -150 126 -290 45 -450 -18 -35 -27 -68 -27 -99 l0 -47 -24 22 c-13
13 -38 49 -56 82 -72 136 -81 251 -30 395 17 49 34 101 37 117 3 15 8 27 12
27 4 0 23 -21 43 -47z m-8095 -76 c48 -116 66 -185 57 -225 -15 -70 -57 -190
-74 -212 l-19 -25 -30 30 c-21 21 -42 66 -71 150 l-41 119 63 133 c34 73 65
133 68 133 3 0 24 -46 47 -103z m8123 -699 c0 -5 14 -8 30 -8 17 0 30 -2 30
-5 0 -3 -32 -44 -72 -91 -53 -63 -76 -84 -92 -82 -12 2 -41 32 -70 72 l-50 69
74 68 75 69 37 -43 c21 -23 38 -45 38 -49z m-8089 35 c41 -23 69 -45 69 -54 0
-26 -69 -156 -86 -163 -29 -11 -134 85 -134 123 0 21 61 130 74 131 4 0 39
-17 77 -37z m7866 -224 l41 -110 -101 -50 c-79 -40 -102 -48 -109 -37 -15 22
-3 149 19 198 20 46 78 110 98 110 7 0 30 -50 52 -111z m-7660 53 c16 -21 39
-62 52 -90 24 -52 24 -53 7 -107 -9 -30 -19 -55 -22 -55 -10 0 -70 33 -121 67
-65 43 -67 60 -16 154 44 81 61 86 100 31z m8017 -66 c33 -101 16 -190 -52
-258 -40 -42 -52 -47 -52 -20 0 9 -16 41 -35 70 -54 79 -59 98 -35 136 24 40
141 140 150 129 4 -4 15 -30 24 -57z m-8367 -20 c45 -46 63 -73 63 -91 0 -50
-88 -189 -114 -179 -17 6 -86 165 -86 196 0 29 50 138 63 138 6 0 39 -29 74
-64z m8121 -194 c24 -37 59 -78 79 -92 l35 -24 -28 -23 c-65 -53 -148 -103
-170 -103 -18 0 -32 12 -54 48 -48 78 -60 92 -80 92 -10 0 -21 4 -24 9 -5 8
181 162 194 160 3 0 24 -30 48 -67z m-7899 13 c56 -33 111 -85 111 -106 0 -40
-78 -149 -107 -149 -17 0 -116 51 -153 79 -22 17 -23 22 -11 47 17 38 91 164
96 164 2 0 31 -16 64 -35z m296 -254 c33 -88 28 -134 -17 -139 -36 -4 -158 72
-158 99 0 24 34 92 68 138 l25 34 27 -30 c15 -17 40 -63 55 -102z m7363 46
c37 -83 39 -98 15 -120 -18 -15 -193 -91 -198 -85 -6 6 36 181 50 208 17 33
61 70 84 70 10 0 28 -26 49 -73z m-7772 -98 c74 -44 84 -54 78 -72 -6 -19 -80
-156 -89 -166 -7 -6 -58 58 -82 101 -32 57 -32 188 -1 188 6 0 48 -23 94 -51z
m8152 35 c20 -36 1 -107 -51 -191 -29 -46 -54 -83 -57 -83 -3 0 -26 41 -50 90
-51 104 -53 96 50 159 71 44 94 49 108 25z m-248 -224 c27 -55 50 -102 50
-104 0 -8 -125 -74 -151 -81 -33 -8 -85 33 -110 90 -25 55 -24 77 9 108 26 25
128 86 144 87 4 0 30 -45 58 -100z m-7624 46 c86 -40 89 -47 49 -145 -24 -59
-25 -65 -10 -87 18 -28 17 -27 48 -13 14 6 35 35 51 70 41 84 47 87 95 41 l41
-39 0 -124 0 -123 -27 32 c-19 21 -79 57 -185 107 -171 83 -212 95 -243 71
-20 -14 -20 -14 0 -42 12 -15 55 -46 98 -68 51 -27 77 -47 77 -59 0 -15 -32
-160 -45 -204 -2 -7 -40 23 -84 65 -119 115 -125 160 -52 367 59 169 67 185
91 185 12 0 55 -15 96 -34z m7322 -135 c12 -28 45 -138 73 -247 58 -225 59
-216 -36 -249 -67 -22 -81 -17 -112 45 -41 80 -29 111 58 148 49 21 59 35 59
84 0 29 -1 30 -37 23 -20 -4 -54 -15 -75 -26 -20 -10 -49 -19 -63 -19 -30 0
-33 15 -20 113 5 38 17 60 61 112 31 36 58 65 62 65 4 0 17 -22 30 -49z m396
-156 c16 -34 16 -35 -20 -107 -44 -89 -65 -113 -126 -144 l-46 -23 -6 22 c-3
12 -8 63 -12 112 -5 76 -4 93 9 104 17 14 155 70 173 71 7 0 19 -16 28 -35z
m-4446 -104 c4 -52 -18 -119 -53 -165 -40 -52 -111 -94 -295 -176 -367 -162
-505 -262 -587 -424 -47 -93 -67 -190 -59 -288 12 -145 58 -257 174 -419 80
-112 93 -122 137 -117 19 2 35 0 35 -4 0 -4 -4 -8 -9 -8 -20 0 -100 -83 -106
-110 -4 -17 -10 -30 -15 -30 -16 0 -156 173 -212 261 -183 290 -212 582 -84
837 64 128 157 228 301 324 101 68 425 233 555 283 47 18 110 45 140 58 30 14
60 25 65 23 6 -1 11 -22 13 -45z m1162 -36 c316 -128 458 -204 596 -316 179
-145 282 -304 320 -489 42 -209 -30 -451 -209 -698 -91 -126 -100 -146 -93
-196 l7 -41 -58 58 c-37 35 -67 57 -81 57 -23 0 -72 -40 -72 -59 0 -5 18 -31
40 -56 46 -53 48 -61 19 -70 -12 -4 -63 -48 -113 -98 -135 -134 -277 -243
-445 -341 l-63 -37 5 27 c6 33 -5 45 -136 138 -99 71 -106 86 -43 86 24 0 51
22 146 115 64 63 119 115 123 115 3 0 13 -13 22 -30 19 -37 68 -64 102 -55 91
22 402 284 518 435 241 315 244 644 6 881 -105 104 -277 198 -589 319 -94 37
-151 85 -189 157 -55 106 -55 195 0 173 12 -4 96 -38 187 -75z m2328 -121 c34
-10 27 -36 -34 -121 -101 -140 -159 -278 -193 -456 -11 -58 -26 -115 -33 -126
-17 -28 -50 -38 -191 -56 -290 -37 -591 2 -694 90 -74 63 -109 180 -68 225 9
10 49 35 88 54 40 20 87 49 106 64 31 26 32 30 20 51 -13 22 -18 23 -93 17
-89 -6 -146 4 -228 41 -47 21 -60 32 -77 69 -36 75 -38 73 112 67 303 -11 367
-25 367 -76 0 -13 -11 -61 -25 -107 -29 -98 -31 -142 -8 -224 14 -50 27 -71
73 -118 60 -60 94 -75 192 -85 101 -10 138 21 138 117 0 74 -35 157 -90 213
-43 43 -51 47 -94 47 -35 0 -46 -4 -46 -16 0 -20 31 -74 43 -74 4 0 26 -39 48
-86 46 -100 43 -116 -19 -95 -100 36 -142 85 -142 167 0 40 6 59 28 90 39 53
132 137 176 158 64 30 77 22 111 -75 17 -47 41 -103 54 -123 44 -69 137 -112
196 -90 71 28 57 231 -21 310 -28 28 -42 34 -76 34 l-42 0 30 31 c29 31 87 65
134 80 30 9 226 11 258 3z m-2945 -161 c243 -300 338 -541 307 -787 -9 -72
-84 -373 -96 -385 -2 -3 -40 14 -83 37 -57 30 -90 42 -121 42 -41 0 -42 -1
-35 -27 9 -38 33 -62 132 -130 l85 -58 -43 -6 c-35 -5 -49 -13 -74 -45 -32
-42 -166 -174 -177 -174 -14 0 -290 442 -312 502 -71 189 -62 450 24 659 74
179 266 437 326 439 7 0 36 -30 67 -67z m2580 -63 c34 -63 44 -92 40 -113 -4
-23 -9 -26 -27 -21 -28 9 -55 33 -72 66 -22 42 -16 185 6 161 4 -4 28 -46 53
-93z m-5236 45 c15 -45 -18 -130 -60 -156 -46 -28 -57 -24 -57 16 0 40 17 78
63 143 33 45 38 45 54 -3z m-790 -77 c102 -48 216 -202 242 -326 15 -74 14
-81 -13 -93 -60 -28 -220 95 -279 214 -37 73 -55 167 -39 202 14 31 29 31 89
3z m2595 -225 c9 -10 24 -56 33 -103 57 -290 168 -552 341 -803 30 -43 54 -81
54 -83 0 -3 -10 2 -22 10 -38 27 -68 18 -159 -44 -48 -33 -92 -60 -98 -60 -6
0 -18 15 -27 33 -9 17 -61 87 -116 155 -80 99 -94 121 -74 116 31 -7 49 18 70
101 40 150 -7 354 -104 456 -20 21 -46 39 -58 39 -30 0 -90 -64 -119 -127 -70
-152 -47 -322 66 -488 12 -16 21 -33 21 -37 0 -4 -30 -28 -66 -54 -53 -38 -68
-44 -75 -33 -5 8 -48 91 -95 184 -77 154 -86 177 -93 245 -8 95 1 149 39 227
56 114 183 206 355 257 99 30 108 30 127 9z m1715 -22 c99 -34 153 -65 221
-127 153 -137 179 -335 71 -548 -40 -79 -60 -107 -153 -211 l-44 -50 -7 30
c-4 17 -18 44 -31 62 -13 17 -24 38 -24 45 0 8 20 44 44 81 60 92 80 154 80
252 1 60 -5 96 -23 142 -24 65 -87 147 -121 158 -31 10 -75 -21 -114 -79 -120
-180 -123 -352 -11 -552 35 -62 36 -74 6 -55 -19 12 -47 -3 -80 -43 -36 -43
-172 -176 -180 -176 -4 0 -14 15 -23 33 -11 23 -45 53 -102 92 l-86 59 28 12
c47 19 171 243 257 464 36 91 66 201 90 326 8 42 22 85 31 95 24 27 75 24 171
-10z m-3819 -307 c15 -4 16 -65 1 -98 -7 -14 -27 -32 -47 -42 -62 -29 -101 9
-105 100 -2 34 1 41 23 47 23 6 99 2 128 -7z m1966 -43 c31 -34 57 -381 29
-381 -7 0 -56 60 -80 99 -50 79 -50 214 -2 275 24 31 31 32 53 7z m1884 -14
c7 -15 18 -53 24 -85 10 -53 8 -62 -22 -137 -42 -107 -57 -130 -76 -114 -20
17 -44 104 -44 164 0 96 50 210 89 203 9 -2 22 -16 29 -31z m-2928 -373 c16
-42 11 -78 -20 -140 -38 -78 -101 -138 -191 -182 -70 -36 -79 -44 -95 -87 -14
-40 -27 63 -15 127 26 151 124 269 246 299 53 13 65 10 75 -17z m1187 -286
c42 -46 59 -57 88 -60 l35 -3 -36 -29 c-21 -16 -49 -29 -63 -29 -14 0 -57 20
-96 45 -38 25 -90 56 -115 68 -25 12 -47 24 -49 26 -2 2 13 22 34 45 34 38 37
45 31 83 l-6 41 62 -65 c35 -36 86 -91 115 -122z m1710 104 l63 -39 -28 -24
c-84 -76 -184 -150 -211 -155 -17 -4 -42 -3 -56 0 -25 6 -24 8 51 98 41 50 83
106 92 124 8 19 18 34 21 34 3 0 34 -17 68 -38z m-1163 -181 c62 -59 122 -111
134 -115 31 -10 28 -19 -22 -60 -58 -47 -90 -99 -82 -131 8 -32 48 -43 80 -22
40 27 381 387 389 412 10 30 20 31 57 5 44 -31 130 -67 178 -75 23 -4 42 -10
42 -15 0 -4 -59 -64 -131 -134 -113 -108 -131 -129 -127 -151 3 -14 2 -25 -2
-25 -7 0 -146 94 -171 116 -22 20 -39 18 -66 -8 -30 -28 -30 -65 1 -79 13 -6
40 -31 61 -56 32 -38 35 -47 24 -58 -8 -7 -81 -74 -163 -149 -179 -163 -194
-170 -289 -131 -34 15 -79 34 -99 42 -41 17 -113 12 -144 -12 -17 -12 -17 -15
-4 -28 24 -24 312 -147 343 -147 43 0 61 13 207 149 229 214 213 197 207 235
l-5 34 52 -32 c28 -17 96 -51 149 -75 54 -24 96 -49 94 -54 -2 -6 -59 -39
-126 -74 -135 -71 -145 -72 -213 -27 -21 13 -45 24 -54 24 -17 0 -74 -52 -74
-69 0 -5 32 -31 72 -58 65 -44 76 -48 127 -46 48 1 82 13 239 87 100 47 188
86 195 86 14 0 87 -65 87 -78 0 -14 -205 -106 -313 -141 -166 -53 -256 -64
-477 -58 -207 6 -301 21 -430 70 -83 31 -182 81 -239 120 l-44 30 223 112
c123 61 228 119 234 128 8 12 5 21 -8 36 -34 38 -8 22 76 -47 92 -75 129 -102
140 -102 17 0 38 35 38 65 0 30 -15 46 -172 188 -95 85 -201 179 -236 208
l-63 54 88 82 c48 46 92 83 97 83 5 0 59 -49 120 -109z m-812 51 c-3 -25 5
-35 66 -85 192 -155 219 -163 320 -98 l61 40 25 -42 c13 -23 68 -88 120 -144
53 -56 96 -104 96 -107 0 -3 -63 -38 -141 -76 l-141 -71 -76 63 c-322 263
-430 359 -473 419 l-19 27 70 42 c39 23 73 46 76 51 11 19 20 8 16 -19z m-560
-161 c5 -54 -4 -83 -41 -129 -18 -21 -34 -55 -38 -75 -3 -21 -9 -37 -13 -37
-12 0 -35 91 -34 135 1 52 27 101 67 125 45 28 54 25 59 -19z m527 -498 c28
-32 51 -61 51 -65 0 -13 -115 -9 -128 4 -13 13 -16 75 -6 102 11 28 31 18 83
-41z"/>
</g>
</svg>
